<mxfile host="www.draw.io" modified="2019-11-25T17:19:28.609Z" agent="Mozilla/5.0 (Macintosh; Intel Mac OS X 10_15_1) AppleWebKit/605.1.15 (KHTML, like Gecko) Version/13.0.3 Safari/605.1.15" etag="nWg0HyPZY-IOIzYk8dnO" version="12.3.0" type="github" pages="1">
  <diagram id="OmaDCbSVozZMoQ_WdIqg" name="Page-1">
    <mxGraphModel dx="1055" dy="819" grid="1" gridSize="10" guides="1" tooltips="1" connect="1" arrows="1" fold="1" page="1" pageScale="1" pageWidth="827" pageHeight="1169" math="0" shadow="0">
      <root>
        <mxCell id="0"/>
        <mxCell id="1" parent="0"/>
        <mxCell id="sGWQ39q93TzGniWW_xwZ-1" value="opportunities.php" style="rounded=0;whiteSpace=wrap;html=1;" vertex="1" parent="1">
          <mxGeometry x="320" y="10" width="120" height="60" as="geometry"/>
        </mxCell>
        <mxCell id="sGWQ39q93TzGniWW_xwZ-2" value="" style="endArrow=classic;html=1;exitX=0.5;exitY=1;exitDx=0;exitDy=0;" edge="1" parent="1" source="sGWQ39q93TzGniWW_xwZ-1">
          <mxGeometry width="50" height="50" relative="1" as="geometry">
            <mxPoint x="360" y="120" as="sourcePoint"/>
            <mxPoint x="380" y="100" as="targetPoint"/>
          </mxGeometry>
        </mxCell>
        <mxCell id="sGWQ39q93TzGniWW_xwZ-3" value="filteredjobs.php?pid=x" style="rounded=0;whiteSpace=wrap;html=1;" vertex="1" parent="1">
          <mxGeometry x="320" y="210" width="120" height="60" as="geometry"/>
        </mxCell>
        <mxCell id="sGWQ39q93TzGniWW_xwZ-8" style="edgeStyle=orthogonalEdgeStyle;rounded=0;orthogonalLoop=1;jettySize=auto;html=1;exitX=0;exitY=0.5;exitDx=0;exitDy=0;entryX=0;entryY=0.5;entryDx=0;entryDy=0;" edge="1" parent="1" source="sGWQ39q93TzGniWW_xwZ-4" target="sGWQ39q93TzGniWW_xwZ-1">
          <mxGeometry relative="1" as="geometry">
            <mxPoint x="240" y="40" as="targetPoint"/>
          </mxGeometry>
        </mxCell>
        <mxCell id="sGWQ39q93TzGniWW_xwZ-4" value="Clicked job category" style="rhombus;whiteSpace=wrap;html=1;" vertex="1" parent="1">
          <mxGeometry x="300" y="100" width="160" height="80" as="geometry"/>
        </mxCell>
        <mxCell id="sGWQ39q93TzGniWW_xwZ-5" value="" style="endArrow=classic;html=1;exitX=0.5;exitY=1;exitDx=0;exitDy=0;" edge="1" parent="1" source="sGWQ39q93TzGniWW_xwZ-4">
          <mxGeometry width="50" height="50" relative="1" as="geometry">
            <mxPoint x="360" y="230" as="sourcePoint"/>
            <mxPoint x="380" y="210" as="targetPoint"/>
          </mxGeometry>
        </mxCell>
        <mxCell id="sGWQ39q93TzGniWW_xwZ-9" value="Yes" style="text;html=1;strokeColor=none;fillColor=none;align=center;verticalAlign=middle;whiteSpace=wrap;rounded=0;" vertex="1" parent="1">
          <mxGeometry x="390" y="180" width="40" height="20" as="geometry"/>
        </mxCell>
        <mxCell id="sGWQ39q93TzGniWW_xwZ-11" value="No" style="text;html=1;align=center;verticalAlign=middle;resizable=0;points=[];;autosize=1;" vertex="1" parent="1">
          <mxGeometry x="301" y="90" width="30" height="20" as="geometry"/>
        </mxCell>
        <mxCell id="sGWQ39q93TzGniWW_xwZ-27" value="Clicked view full info&lt;br&gt;button on job" style="rhombus;whiteSpace=wrap;html=1;" vertex="1" parent="1">
          <mxGeometry x="300" y="300" width="160" height="90" as="geometry"/>
        </mxCell>
        <mxCell id="sGWQ39q93TzGniWW_xwZ-28" value="" style="endArrow=classic;html=1;entryX=0.5;entryY=0;entryDx=0;entryDy=0;" edge="1" parent="1" target="sGWQ39q93TzGniWW_xwZ-27">
          <mxGeometry width="50" height="50" relative="1" as="geometry">
            <mxPoint x="380" y="270" as="sourcePoint"/>
            <mxPoint x="390" y="110" as="targetPoint"/>
          </mxGeometry>
        </mxCell>
        <mxCell id="sGWQ39q93TzGniWW_xwZ-29" value="No" style="text;html=1;align=center;verticalAlign=middle;resizable=0;points=[];;autosize=1;" vertex="1" parent="1">
          <mxGeometry x="285" y="280" width="30" height="20" as="geometry"/>
        </mxCell>
        <mxCell id="sGWQ39q93TzGniWW_xwZ-30" value="Yes" style="text;html=1;strokeColor=none;fillColor=none;align=center;verticalAlign=middle;whiteSpace=wrap;rounded=0;" vertex="1" parent="1">
          <mxGeometry x="400" y="390" width="40" height="20" as="geometry"/>
        </mxCell>
        <mxCell id="sGWQ39q93TzGniWW_xwZ-31" style="edgeStyle=orthogonalEdgeStyle;rounded=0;orthogonalLoop=1;jettySize=auto;html=1;exitX=0;exitY=0.5;exitDx=0;exitDy=0;entryX=0;entryY=0.5;entryDx=0;entryDy=0;" edge="1" parent="1" source="sGWQ39q93TzGniWW_xwZ-27" target="sGWQ39q93TzGniWW_xwZ-3">
          <mxGeometry relative="1" as="geometry">
            <mxPoint x="225" y="250" as="targetPoint"/>
            <mxPoint x="205" y="350" as="sourcePoint"/>
            <Array as="points">
              <mxPoint x="270" y="345"/>
              <mxPoint x="270" y="240"/>
            </Array>
          </mxGeometry>
        </mxCell>
        <mxCell id="sGWQ39q93TzGniWW_xwZ-32" value="" style="endArrow=classic;html=1;exitX=0.5;exitY=1;exitDx=0;exitDy=0;" edge="1" parent="1" source="sGWQ39q93TzGniWW_xwZ-27">
          <mxGeometry width="50" height="50" relative="1" as="geometry">
            <mxPoint x="380" y="410" as="sourcePoint"/>
            <mxPoint x="380" y="420" as="targetPoint"/>
          </mxGeometry>
        </mxCell>
        <mxCell id="sGWQ39q93TzGniWW_xwZ-33" value="jobdetail.php?jobID=x&amp;amp;filtered=x" style="rounded=0;whiteSpace=wrap;html=1;" vertex="1" parent="1">
          <mxGeometry x="316" y="420" width="120" height="60" as="geometry"/>
        </mxCell>
        <mxCell id="sGWQ39q93TzGniWW_xwZ-34" value="Clicked apply now&lt;br&gt;button" style="rhombus;whiteSpace=wrap;html=1;" vertex="1" parent="1">
          <mxGeometry x="296" y="500" width="160" height="90" as="geometry"/>
        </mxCell>
        <mxCell id="sGWQ39q93TzGniWW_xwZ-37" value="" style="endArrow=classic;html=1;" edge="1" parent="1">
          <mxGeometry width="50" height="50" relative="1" as="geometry">
            <mxPoint x="375.5" y="480" as="sourcePoint"/>
            <mxPoint x="376" y="500" as="targetPoint"/>
            <Array as="points">
              <mxPoint x="375.5" y="500"/>
            </Array>
          </mxGeometry>
        </mxCell>
        <mxCell id="sGWQ39q93TzGniWW_xwZ-39" value="" style="endArrow=classic;html=1;entryX=0.5;entryY=0;entryDx=0;entryDy=0;" edge="1" parent="1">
          <mxGeometry width="50" height="50" relative="1" as="geometry">
            <mxPoint x="375" y="590" as="sourcePoint"/>
            <mxPoint x="375" y="620" as="targetPoint"/>
          </mxGeometry>
        </mxCell>
        <mxCell id="sGWQ39q93TzGniWW_xwZ-40" value="Yes" style="text;html=1;strokeColor=none;fillColor=none;align=center;verticalAlign=middle;whiteSpace=wrap;rounded=0;" vertex="1" parent="1">
          <mxGeometry x="390" y="590" width="40" height="20" as="geometry"/>
        </mxCell>
        <mxCell id="sGWQ39q93TzGniWW_xwZ-41" style="edgeStyle=orthogonalEdgeStyle;rounded=0;orthogonalLoop=1;jettySize=auto;html=1;exitX=0;exitY=0.5;exitDx=0;exitDy=0;entryX=0;entryY=0.5;entryDx=0;entryDy=0;" edge="1" parent="1">
          <mxGeometry relative="1" as="geometry">
            <mxPoint x="315" y="440" as="targetPoint"/>
            <mxPoint x="295" y="545" as="sourcePoint"/>
            <Array as="points">
              <mxPoint x="265" y="545"/>
              <mxPoint x="265" y="440"/>
            </Array>
          </mxGeometry>
        </mxCell>
        <mxCell id="sGWQ39q93TzGniWW_xwZ-42" value="No" style="text;html=1;align=center;verticalAlign=middle;resizable=0;points=[];;autosize=1;" vertex="1" parent="1">
          <mxGeometry x="290" y="490" width="30" height="20" as="geometry"/>
        </mxCell>
        <mxCell id="sGWQ39q93TzGniWW_xwZ-43" value="applynow.php?jobID=x" style="rounded=0;whiteSpace=wrap;html=1;" vertex="1" parent="1">
          <mxGeometry x="315" y="620" width="120" height="60" as="geometry"/>
        </mxCell>
        <mxCell id="sGWQ39q93TzGniWW_xwZ-44" value="" style="endArrow=classic;html=1;" edge="1" parent="1">
          <mxGeometry width="50" height="50" relative="1" as="geometry">
            <mxPoint x="370.5" y="680" as="sourcePoint"/>
            <mxPoint x="371" y="700" as="targetPoint"/>
            <Array as="points">
              <mxPoint x="370.5" y="700"/>
            </Array>
          </mxGeometry>
        </mxCell>
        <mxCell id="sGWQ39q93TzGniWW_xwZ-45" value="&amp;nbsp;&lt;br&gt;Clicked complete &lt;br&gt;online application &lt;br&gt;button" style="rhombus;whiteSpace=wrap;html=1;" vertex="1" parent="1">
          <mxGeometry x="290" y="700" width="160" height="90" as="geometry"/>
        </mxCell>
        <mxCell id="sGWQ39q93TzGniWW_xwZ-46" style="edgeStyle=orthogonalEdgeStyle;rounded=0;orthogonalLoop=1;jettySize=auto;html=1;exitX=0;exitY=0.5;exitDx=0;exitDy=0;entryX=0;entryY=0.5;entryDx=0;entryDy=0;" edge="1" parent="1">
          <mxGeometry relative="1" as="geometry">
            <mxPoint x="310" y="640" as="targetPoint"/>
            <mxPoint x="290" y="745" as="sourcePoint"/>
            <Array as="points">
              <mxPoint x="260" y="745"/>
              <mxPoint x="260" y="640"/>
            </Array>
          </mxGeometry>
        </mxCell>
        <mxCell id="sGWQ39q93TzGniWW_xwZ-47" value="" style="endArrow=classic;html=1;entryX=0.5;entryY=0;entryDx=0;entryDy=0;" edge="1" parent="1">
          <mxGeometry width="50" height="50" relative="1" as="geometry">
            <mxPoint x="369.5" y="790" as="sourcePoint"/>
            <mxPoint x="369.5" y="820" as="targetPoint"/>
          </mxGeometry>
        </mxCell>
        <mxCell id="sGWQ39q93TzGniWW_xwZ-48" value="PG 2&lt;br&gt;Begin Job&lt;br&gt;Application" style="ellipse;whiteSpace=wrap;html=1;aspect=fixed;" vertex="1" parent="1">
          <mxGeometry x="330" y="820" width="80" height="80" as="geometry"/>
        </mxCell>
        <mxCell id="sGWQ39q93TzGniWW_xwZ-49" value="No" style="text;html=1;align=center;verticalAlign=middle;resizable=0;points=[];;autosize=1;" vertex="1" parent="1">
          <mxGeometry x="280" y="690" width="30" height="20" as="geometry"/>
        </mxCell>
        <mxCell id="sGWQ39q93TzGniWW_xwZ-50" value="Yes" style="text;html=1;strokeColor=none;fillColor=none;align=center;verticalAlign=middle;whiteSpace=wrap;rounded=0;" vertex="1" parent="1">
          <mxGeometry x="380" y="800" width="40" height="20" as="geometry"/>
        </mxCell>
      </root>
    </mxGraphModel>
  </diagram>
</mxfile>
